<?xml version="1.0" encoding="UTF-8" standalone="no"?>
<!-- Created with Inkscape (http://www.inkscape.org/) -->

<svg
   xmlns:dc="http://purl.org/dc/elements/1.1/"
   xmlns:cc="http://creativecommons.org/ns#"
   xmlns:rdf="http://www.w3.org/1999/02/22-rdf-syntax-ns#"
   xmlns:svg="http://www.w3.org/2000/svg"
   xmlns="http://www.w3.org/2000/svg"
   xmlns:sodipodi="http://sodipodi.sourceforge.net/DTD/sodipodi-0.dtd"
   xmlns:inkscape="http://www.inkscape.org/namespaces/inkscape"
   width="210mm"
   height="297mm"
   viewBox="0 0 744.09448819 1052.3622047"
   id="svg2"
   version="1.1"
   inkscape:version="0.91 r13725"
   sodipodi:docname="logo.svg">
  <defs
     id="defs4">
    <mask
       maskUnits="userSpaceOnUse"
       id="mask4945">
      <rect
         style="opacity:0.95;fill:#ffffff;fill-opacity:1;stroke:#cbbe30;stroke-width:1.08771122;stroke-miterlimit:4;stroke-dasharray:none;stroke-opacity:1"
         id="rect4947"
         width="390.91229"
         height="390.91229"
         x="169.22244"
         y="269.37036" />
    </mask>
  </defs>
  <sodipodi:namedview
     id="base"
     pagecolor="#ffffff"
     bordercolor="#666666"
     borderopacity="1.0"
     inkscape:pageopacity="0.0"
     inkscape:pageshadow="2"
     inkscape:zoom="0.98994949"
     inkscape:cx="370.7932"
     inkscape:cy="592.20335"
     inkscape:document-units="px"
     inkscape:current-layer="layer1"
     showgrid="false"
     inkscape:window-width="1440"
     inkscape:window-height="851"
     inkscape:window-x="0"
     inkscape:window-y="1"
     inkscape:window-maximized="1" />
  <metadata
     id="metadata7">
    <rdf:RDF>
      <cc:Work
         rdf:about="">
        <dc:format>image/svg+xml</dc:format>
        <dc:type
           rdf:resource="http://purl.org/dc/dcmitype/StillImage" />
      </cc:Work>
    </rdf:RDF>
  </metadata>
  <g
     inkscape:label="Layer 1"
     inkscape:groupmode="layer"
     id="layer1">
    <g
       id="g5250"
       transform="matrix(9.2820632,0,0,9.8806047,75.116827,103.5398)"
       inkscape:export-xdpi="26.377434"
       inkscape:export-ydpi="26.377434">
      <path
         id="path5224"
         d="m 59,33.6 c 0,-2.7 -1.7,-5 -4,-6 0.9,-0.9 1.5,-2.2 1.5,-3.6 0,-2.8 -2.3,-5.1 -5.1,-5.1 -0.2,0 -0.4,0 -0.5,0 0.3,-0.7 0.5,-1.5 0.5,-2.3 0,-2.8 -2.3,-5.1 -5.1,-5.1 -0.9,0 -1.7,0.2 -2.4,0.6 -0.7,-2 -2.6,-3.7 -4.8,-3.7 -2.8,0 -5,2.6 -5.1,4.6 l 0,0 0,35 0.1,0 c 0,0 0,0 0,0 0,3.6 2.9,6.4 6.5,6.4 3.2,0 5.8,-2.3 6.4,-5.3 0.6,0.2 1.3,0.3 2,0.3 3.6,0 6.5,-2.9 6.5,-6.5 0,-1.1 -0.3,-2.2 -0.8,-3.2 2.4,-0.8 4.3,-3.2 4.3,-6.1 z"
         inkscape:connector-curvature="0"
         style="fill:#f0908b" />
      <path
         id="path5226"
         d="m 5,33.6 c 0,-2.7 1.7,-5 4,-6 C 8.1,26.7 7.5,25.4 7.5,24 c 0,-2.8 2.3,-5.1 5.1,-5.1 0.2,0 0.4,0 0.5,0 -0.3,-0.7 -0.5,-1.5 -0.5,-2.3 0,-2.8 2.3,-5.1 5.1,-5.1 0.9,0 1.7,0.2 2.4,0.6 0.7,-2 2.6,-3.7 4.8,-3.7 2.8,0 5,2.6 5.1,4.6 l 0,0 0,35 -0.1,0 c 0,0 0,0 0,0 0,3.6 -2.9,6.4 -6.5,6.4 -3.2,0 -5.8,-2.3 -6.4,-5.3 -0.6,0.2 -1.3,0.3 -2,0.3 -3.6,0 -6.5,-2.9 -6.5,-6.5 0,-1.1 0.3,-2.2 0.8,-3.2 C 6.9,38.9 5,36.5 5,33.6 Z"
         inkscape:connector-curvature="0"
         style="fill:#f0908b" />
      <path
         id="path5228"
         stroke-miterlimit="10"
         d="m 59,33.6 c 0,-2.7 -1.7,-5 -4,-6 0.9,-0.9 1.5,-2.2 1.5,-3.6 0,-2.8 -2.3,-5.1 -5.1,-5.1 -0.2,0 -0.4,0 -0.5,0 0.3,-0.7 0.5,-1.5 0.5,-2.3 0,-2.8 -2.3,-5.1 -5.1,-5.1 -0.9,0 -1.7,0.2 -2.4,0.6 -0.7,-2 -2.6,-3.7 -4.8,-3.7 -2.8,0 -5,2.6 -5.1,4.6 l 0,0 0,35 0.1,0 c 0,0 0,0 0,0 0,3.6 2.9,6.4 6.5,6.4 3.2,0 5.8,-2.3 6.4,-5.3 0.6,0.2 1.3,0.3 2,0.3 3.6,0 6.5,-2.9 6.5,-6.5 0,-1.1 -0.3,-2.2 -0.8,-3.2 2.4,-0.8 4.3,-3.2 4.3,-6.1 z"
         inkscape:connector-curvature="0"
         style="fill:none;stroke:#2c3e50;stroke-width:2;stroke-linecap:round;stroke-linejoin:round;stroke-miterlimit:10" />
      <path
         id="path5230"
         stroke-miterlimit="10"
         d="m 5,33.6 c 0,-2.7 1.7,-5 4,-6 C 8.1,26.7 7.5,25.4 7.5,24 c 0,-2.8 2.3,-5.1 5.1,-5.1 0.2,0 0.4,0 0.5,0 -0.3,-0.7 -0.5,-1.5 -0.5,-2.3 0,-2.8 2.3,-5.1 5.1,-5.1 0.9,0 1.7,0.2 2.4,0.6 0.7,-2 2.6,-3.7 4.8,-3.7 2.8,0 5,2.6 5.1,4.6 l 0,0 0,35 -0.1,0 c 0,0 0,0 0,0 0,3.6 -2.9,6.4 -6.5,6.4 -3.2,0 -5.8,-2.3 -6.4,-5.3 -0.6,0.2 -1.3,0.3 -2,0.3 -3.6,0 -6.5,-2.9 -6.5,-6.5 0,-1.1 0.3,-2.2 0.8,-3.2 C 6.9,38.9 5,36.5 5,33.6 Z"
         inkscape:connector-curvature="0"
         style="fill:none;stroke:#2c3e50;stroke-width:2;stroke-linecap:round;stroke-linejoin:round;stroke-miterlimit:10" />
      <path
         id="path5232"
         stroke-miterlimit="10"
         d="m 15.5,35.2 c 0,0 4.6,-0.7 6.6,3.8 2.2,5 -0.7,8.7 -5,10.1"
         inkscape:connector-curvature="0"
         style="fill:none;stroke:#2c3e50;stroke-width:2;stroke-linecap:round;stroke-linejoin:round;stroke-miterlimit:10" />
      <path
         id="path5234"
         stroke-miterlimit="10"
         d="m 25.6,20.6 c 0,0 -2.5,4 -7,3 -4.5,-1 -5.4,-4.7 -5.4,-4.7"
         inkscape:connector-curvature="0"
         style="fill:none;stroke:#2c3e50;stroke-width:2;stroke-linecap:round;stroke-linejoin:round;stroke-miterlimit:10" />
      <path
         id="path5236"
         stroke-miterlimit="10"
         d="M 25.6,29.6 C 25.5,29.5 24.3,25.3 19.1,23.8"
         inkscape:connector-curvature="0"
         style="fill:none;stroke:#2c3e50;stroke-width:2;stroke-linecap:round;stroke-linejoin:round;stroke-miterlimit:10" />
      <path
         id="path5238"
         stroke-miterlimit="10"
         d="m 43.4,30.2 c 0,0 -1.2,4.4 2.6,7.8 1.8,1.6 5.4,2.1 8.5,1.7"
         inkscape:connector-curvature="0"
         style="fill:none;stroke:#2c3e50;stroke-width:2;stroke-linecap:round;stroke-linejoin:round;stroke-miterlimit:10" />
      <path
         id="path5240"
         stroke-miterlimit="10"
         d="m 42,22 c 0,0 2.7,1.7 5,1 2.3,-0.7 3.9,-4.1 3.9,-4.1"
         inkscape:connector-curvature="0"
         style="fill:none;stroke:#2c3e50;stroke-width:2;stroke-linecap:round;stroke-linejoin:round;stroke-miterlimit:10" />
      <path
         id="path5242"
         stroke-miterlimit="10"
         d="m 40,44 c 0,0 1.3,-5.1 7.3,-5.1"
         inkscape:connector-curvature="0"
         style="fill:none;stroke:#2c3e50;stroke-width:2;stroke-linecap:round;stroke-linejoin:round;stroke-miterlimit:10" />
    </g>
    <g
       id="g5336"
       transform="matrix(0.22639152,0,0,0.23306772,162.04388,462.69652)"
       inkscape:export-xdpi="26.377434"
       inkscape:export-ydpi="26.377434">
      <g
         id="g5338">
        <path
           id="path5340"
           d="m 470.209,256 c 0,1.9 -0.021,3.79 -0.079,5.67 -1.421,55.103 -23.54,106.69 -62.66,145.803 -40.45,40.46 -94.25,62.74 -151.47,62.74 -57.223,0 -111.021,-22.28 -151.473,-62.74 C 65.41,368.361 43.29,316.77 41.87,261.67 41.807,259.79 41.79,257.9 41.79,256 41.79,198.78 64.067,144.99 104.527,104.53 144.98,64.07 198.78,41.79 256,41.79 c 57.22,0 111.02,22.28 151.47,62.74 40.46,40.46 62.739,94.25 62.739,151.47 z"
           inkscape:connector-curvature="0"
           style="fill:#f3b81a" />
      </g>
      <g
         id="g5342">
        <g
           id="g5344">
          <g
             id="g5346">
            <path
               id="path5348"
               d="M 407.47,104.53 C 367.02,64.07 313.22,41.79 256,41.79 198.777,41.79 144.979,64.07 104.527,104.53 64.07,144.99 41.79,198.78 41.79,256 c 0,1.9 0.02,3.79 0.08,5.67 1.42,55.103 23.54,106.69 62.657,145.803 40.45,40.46 94.25,62.74 151.473,62.74 57.22,0 111.02,-22.28 151.47,-62.74 39.12,-39.109 61.239,-90.7 62.66,-145.803 0.061,-1.88 0.079,-3.77 0.079,-5.67 0,-57.22 -22.279,-111.01 -62.739,-151.47 z M 256,460.213 C 161.397,460.213 81.62,395.551 58.527,308.103 54.13,291.47 51.79,274 51.79,256 51.79,143.4 143.4,51.79 256,51.79 c 112.6,0 204.209,91.61 204.209,204.21 0,18 -2.342,35.473 -6.739,52.103 C 430.38,395.551 350.6,460.213 256,460.213 Z"
               inkscape:connector-curvature="0"
               style="fill:#5e2b16" />
          </g>
        </g>
        <g
           id="g5350">
          <g
             id="g5352">
            <path
               id="path5354"
               d="m 256,384.651 c -40.753,0 -78.529,-19.065 -98.586,-49.755 l 8.371,-5.474 c 18.229,27.896 52.799,45.229 90.215,45.229 37.416,0 71.981,-17.329 90.215,-45.229 l 8.371,5.474 c -20.057,30.69 -57.832,49.755 -98.586,49.755 z"
               inkscape:connector-curvature="0"
               style="fill:#5e2b16" />
          </g>
        </g>
      </g>
      <g
         id="g5356">
        <path
           id="path5358"
           d="m 321.448,211.694 c 17.445,0 31.639,14.192 31.639,31.639 l -10,0 c 0,-11.932 -9.707,-21.639 -21.639,-21.639 -11.931,0 -21.638,9.707 -21.638,21.639 l -10,0 c 0.002,-17.447 14.194,-31.639 31.638,-31.639 z"
           inkscape:connector-curvature="0"
           style="fill:#5e2c17" />
      </g>
      <g
         id="g5360">
        <path
           id="path5362"
           d="m 190.551,211.694 c 17.444,0 31.639,14.192 31.639,31.639 l -10,0 c 0,-11.932 -9.707,-21.639 -21.639,-21.639 -11.932,0 -21.639,9.707 -21.639,21.639 l -10,0 c 0,-17.447 14.193,-31.639 31.639,-31.639 z"
           inkscape:connector-curvature="0"
           style="fill:#5e2c17" />
      </g>
    </g>
    <g
       transform="matrix(0.22639152,0,0,0.23306772,162.04388,462.69652)"
       id="g5417"
       inkscape:export-xdpi="26.377434"
       inkscape:export-ydpi="26.377434">
      <g
         id="g5419">
        <path
           style="fill:#f3b81a"
           inkscape:connector-curvature="0"
           d="m 470.209,256 c 0,1.9 -0.021,3.79 -0.079,5.67 -1.421,55.103 -23.54,106.69 -62.66,145.803 -40.45,40.46 -94.25,62.74 -151.47,62.74 -57.223,0 -111.021,-22.28 -151.473,-62.74 C 65.41,368.361 43.29,316.77 41.87,261.67 41.807,259.79 41.79,257.9 41.79,256 41.79,198.78 64.067,144.99 104.527,104.53 144.98,64.07 198.78,41.79 256,41.79 c 57.22,0 111.02,22.28 151.47,62.74 40.46,40.46 62.739,94.25 62.739,151.47 z"
           id="path5421" />
      </g>
      <g
         id="g5423">
        <g
           id="g5425">
          <g
             id="g5427">
            <path
               style="fill:#5e2b16"
               inkscape:connector-curvature="0"
               d="M 407.47,104.53 C 367.02,64.07 313.22,41.79 256,41.79 198.777,41.79 144.979,64.07 104.527,104.53 64.07,144.99 41.79,198.78 41.79,256 c 0,1.9 0.02,3.79 0.08,5.67 1.42,55.103 23.54,106.69 62.657,145.803 40.45,40.46 94.25,62.74 151.473,62.74 57.22,0 111.02,-22.28 151.47,-62.74 39.12,-39.109 61.239,-90.7 62.66,-145.803 0.061,-1.88 0.079,-3.77 0.079,-5.67 0,-57.22 -22.279,-111.01 -62.739,-151.47 z M 256,460.213 C 161.397,460.213 81.62,395.551 58.527,308.103 54.13,291.47 51.79,274 51.79,256 51.79,143.4 143.4,51.79 256,51.79 c 112.6,0 204.209,91.61 204.209,204.21 0,18 -2.342,35.473 -6.739,52.103 C 430.38,395.551 350.6,460.213 256,460.213 Z"
               id="path5429" />
          </g>
        </g>
        <g
           id="g5431">
          <g
             id="g5433">
            <path
               style="fill:#5e2b16"
               inkscape:connector-curvature="0"
               d="m 256,384.651 c -40.753,0 -78.529,-19.065 -98.586,-49.755 l 8.371,-5.474 c 18.229,27.896 52.799,45.229 90.215,45.229 37.416,0 71.981,-17.329 90.215,-45.229 l 8.371,5.474 c -20.057,30.69 -57.832,49.755 -98.586,49.755 z"
               id="path5435" />
          </g>
        </g>
      </g>
      <g
         id="g5437">
        <path
           style="fill:#5e2c17"
           inkscape:connector-curvature="0"
           d="m 321.448,211.694 c 17.445,0 31.639,14.192 31.639,31.639 l -10,0 c 0,-11.932 -9.707,-21.639 -21.639,-21.639 -11.931,0 -21.638,9.707 -21.638,21.639 l -10,0 c 0.002,-17.447 14.194,-31.639 31.638,-31.639 z"
           id="path5439" />
      </g>
      <g
         id="g5441">
        <path
           style="fill:#5e2c17"
           inkscape:connector-curvature="0"
           d="m 190.551,211.694 c 17.444,0 31.639,14.192 31.639,31.639 l -10,0 c 0,-11.932 -9.707,-21.639 -21.639,-21.639 -11.932,0 -21.639,9.707 -21.639,21.639 l -10,0 c 0,-17.447 14.193,-31.639 31.639,-31.639 z"
           id="path5443" />
      </g>
    </g>
    <path
       id="path5560"
       d="m 254.95039,270.5833 q 11.24605,0 21.0211,-1.64639 9.77505,-1.64643 15.42179,-4.86264 l 0,6.50903 q 0,2.64191 -4.88752,4.90093 -4.88752,2.25902 -13.28647,3.57997 -8.39895,1.32096 -18.2689,1.32096 -9.86995,0 -18.2689,-1.32096 -8.39895,-1.32095 -13.28648,-3.57997 -4.88752,-2.25902 -4.88752,-4.90093 l 0,-6.50903 q 5.64675,3.21621 15.4218,4.86264 9.77505,1.64639 21.0211,1.64639 z m 0,29.4056 q 11.24605,0 21.0211,-1.64638 9.77505,-1.64642 15.42179,-4.86268 l 0,6.50906 q 0,2.64192 -4.88752,4.90093 -4.88752,2.25903 -13.28647,3.57999 -8.39895,1.32095 -18.2689,1.32095 -9.86995,0 -18.2689,-1.32095 -8.39895,-1.32096 -13.28648,-3.57999 -4.88752,-2.25901 -4.88752,-4.90093 l 0,-6.50906 q 5.64675,3.21626 15.4218,4.86268 9.77505,1.64638 21.0211,1.64638 z m 0,-14.7028 q 11.24605,0 21.0211,-1.64638 9.77505,-1.64643 15.42179,-4.86265 l 0,6.50903 q 0,2.64191 -4.88752,4.90093 -4.88752,2.25902 -13.28647,3.57998 -8.39895,1.32095 -18.2689,1.32095 -9.86995,0 -18.2689,-1.32095 -8.39895,-1.32096 -13.28648,-3.57998 -4.88752,-2.25902 -4.88752,-4.90093 l 0,-6.50903 q 5.64675,3.21622 15.4218,4.86265 9.77505,1.64638 21.0211,1.64638 z m 0,-44.10838 q 9.86995,0 18.2689,1.32096 8.39895,1.32096 13.28647,3.57998 4.88752,2.25902 4.88752,4.90093 l 0,4.90094 q 0,2.64187 -4.88752,4.90093 -4.88752,2.25902 -13.28647,3.57998 -8.39895,1.32092 -18.2689,1.32092 -9.86995,0 -18.2689,-1.32092 -8.39895,-1.32096 -13.28648,-3.57998 -4.88752,-2.25906 -4.88752,-4.90093 l 0,-4.90094 q 0,-2.64191 4.88752,-4.90093 4.88753,-2.25902 13.28648,-3.57998 8.39895,-1.32096 18.2689,-1.32096 z"
       inkscape:connector-curvature="0"
       inkscape:export-xdpi="26.377434"
       inkscape:export-ydpi="26.377434" />
    <g
       id="g5610"
       transform="matrix(0.73422236,0,0,0.91836764,504.93629,511.64803)"
       style="fill:#ff0000"
       inkscape:export-xdpi="26.377434"
       inkscape:export-ydpi="26.377434">
      <g
         id="g5570"
         style="fill:#ff0000">
        <path
           id="path5572"
           d="m 78.947,5.753 c -8.359,-7.671 -21.91,-7.671 -30.271,0 L 43,10.963 37.322,5.753 c -8.357,-7.671 -21.91,-7.671 -30.27,0 -9.404,8.631 -9.404,22.624 0,31.255 L 43,70 78.947,37.009 c 9.404,-8.632 9.404,-22.624 0,-31.256 z"
           inkscape:connector-curvature="0"
           style="fill:#ff0000" />
      </g>
      <g
         id="g5574"
         style="fill:#ff0000" />
      <g
         id="g5576"
         style="fill:#ff0000" />
      <g
         id="g5578"
         style="fill:#ff0000" />
      <g
         id="g5580"
         style="fill:#ff0000" />
      <g
         id="g5582"
         style="fill:#ff0000" />
      <g
         id="g5584"
         style="fill:#ff0000" />
      <g
         id="g5586"
         style="fill:#ff0000" />
      <g
         id="g5588"
         style="fill:#ff0000" />
      <g
         id="g5590"
         style="fill:#ff0000" />
      <g
         id="g5592"
         style="fill:#ff0000" />
      <g
         id="g5594"
         style="fill:#ff0000" />
      <g
         id="g5596"
         style="fill:#ff0000" />
      <g
         id="g5598"
         style="fill:#ff0000" />
      <g
         id="g5600"
         style="fill:#ff0000" />
      <g
         id="g5602"
         style="fill:#ff0000" />
    </g>
    <g
       id="Layer_7"
       transform="matrix(0.13567043,0,0,0.13666482,464.94271,237.76986)"
       inkscape:export-xdpi="26.377434"
       inkscape:export-ydpi="26.377434">
      <g
         id="g5632">
        <path
           id="path1948_1_"
           d="m 253.806,1.783 c -20.678,0.098 -40.426,1.859 -57.803,4.935 -51.187,9.044 -60.48,27.97 -60.48,62.877 l 0,46.103 120.963,0 0,15.366 -120.964,0 -45.396,0 c -35.155,0 -65.937,21.13 -75.563,61.325 -11.107,46.075 -11.603,74.83 0,122.939 8.599,35.808 29.13,61.324 64.286,61.324 l 41.589,0 0,-55.269 c 0,-39.921 34.544,-75.143 75.564,-75.143 l 120.822,0 c 33.632,0 60.479,-27.689 60.479,-61.466 l 0,-115.18 C 377.303,36.818 349.65,12.188 316.824,6.717 296.045,3.257 274.483,1.684 253.806,1.783 Z M 188.391,38.86 c 12.494,0 22.699,10.37 22.699,23.12 0,12.705 -10.205,22.982 -22.699,22.982 -12.542,0 -22.699,-10.277 -22.699,-22.982 0,-12.75 10.157,-23.12 22.699,-23.12 z"
           inkscape:connector-curvature="0" />
        <path
           id="path1950_1_"
           d="m 392.387,131.062 0,53.712 c 0,41.648 -35.303,76.692 -75.562,76.692 l -120.823,0 c -33.094,0 -60.48,28.327 -60.48,61.469 l 0,115.186 c 0,32.777 28.503,52.063 60.48,61.463 38.291,11.259 75.004,13.3 120.822,0 30.451,-8.812 60.479,-26.561 60.479,-61.463 l 0,-46.105 -120.818,0 0,-15.364 120.817,0 60.479,0 c 35.157,0 48.26,-24.519 60.482,-61.324 12.629,-37.895 12.093,-74.335 0,-122.939 -8.687,-34.993 -25.281,-61.325 -60.482,-61.325 l -45.394,0 z M 324.438,422.75 c 12.539,0 22.698,10.269 22.698,22.975 0,12.749 -10.159,23.124 -22.698,23.124 -12.493,0 -22.696,-10.375 -22.696,-23.124 -0.001,-12.706 10.202,-22.975 22.696,-22.975 z"
           inkscape:connector-curvature="0" />
      </g>
    </g>
    <path
       id="path6236"
       d="m 542.59793,400.54848 c -0.97636,0.10492 -0.63938,1.01005 -1.18286,1.02965 -0.53527,0.0198 -0.42619,-1.15242 1.18286,-1.02965 z m 2.94333,0.14933 c 0.95022,-0.24598 0.95519,0.71814 1.47404,0.54269 0.50438,-0.17045 -0.008,-1.22491 -1.47404,-0.54269 z m 32.74774,63.14862 c -2.93512,1.48722 -6.76365,4.79122 -8.19536,6.16024 -1.05261,1.01506 -5.4635,1.51856 -7.9139,0.24772 -2.90423,-1.50681 -1.36344,-3.85823 -5.84778,-3.96946 -2.22877,-0.0525 -4.3962,-0.0723 -6.56817,-0.0459 -1.92161,0.0261 -3.84149,0.0853 -5.80047,0.18852 -6.73298,0.059 -7.39181,4.49583 -11.68066,4.33343 -2.93534,-0.10971 -6.63988,-2.44306 -13.00176,-3.78596 -4.47094,-0.938 -8.76325,-1.16091 -9.68258,-3.15467 -0.91782,-1.98724 1.13253,-4.21567 1.26905,-6.19638 0.16741,-2.58239 -1.94105,-6.0945 -0.38255,-7.45546 1.28698,-1.12673 4.10675,-0.30019 5.92425,-1.3233 1.93284,-1.08059 2.70896,-1.98071 2.70896,-4.35325 0.7111,2.42348 -0.0324,4.43183 -1.63022,5.41576 -0.95022,0.57883 -2.71717,0.88532 -4.17004,0.73621 -1.15046,-0.10971 -1.86307,0.0786 -2.21279,0.52005 -0.44584,0.57381 -0.30263,1.57734 0.25856,2.9137 0.56465,1.33636 1.24313,2.18402 1.15198,3.81883 -0.0912,1.63633 -1.87604,3.57916 -1.59112,4.95492 0.11059,0.52811 0.62621,0.96913 1.86285,1.32156 2.05014,0.58057 5.70932,1.10693 9.3199,1.99377 4.01387,0.99221 8.15799,2.86146 10.73346,2.50228 7.70092,-1.08058 3.30947,-9.40351 2.06332,-11.3827 -6.50013,-10.31191 -10.7987,-17.06229 -14.23993,-14.38304 -0.89816,0.69681 -0.93229,-1.75453 -0.89319,-2.69884 0.14818,-3.38913 1.85659,-4.57485 2.87183,-7.21296 1.90044,-4.94034 3.38248,-10.59882 6.32278,-13.52406 2.18838,-2.82184 5.60196,-7.467 6.25604,-9.91834 -0.54996,-5.33043 -0.71909,-10.94145 -0.80399,-15.85545 -0.0829,-5.22725 0.73875,-9.81342 6.59625,-13.02055 1.42847,-0.78214 3.28484,-1.06905 5.25203,-1.08864 3.51748,-0.0394 7.39635,0.95258 9.8744,2.80377 3.95058,2.95136 6.43338,9.23307 6.14371,13.75045 -0.23437,3.47772 0.3873,7.12262 1.4937,10.8694 1.32434,4.44989 3.42006,7.57845 6.74896,11.13649 4.01215,4.28773 7.13455,12.73539 8.01327,18.08563 0.82818,4.99781 -0.25057,8.08696 -1.33904,8.24261 -1.62049,0.24097 -2.63098,5.42882 -7.70739,5.18784 -3.23948,-0.15738 -3.5568,-2.08563 -4.45475,-3.72849 -1.44336,-2.62679 -2.91093,-1.80525 -3.49998,0.93299 -0.30414,1.40015 -0.083,3.40872 0.36289,4.97147 0.90465,3.20061 0.59403,6.23709 0.0538,9.91812 -1.03641,7.06537 4.89907,8.40174 8.90322,5.04374 3.95058,-3.31533 4.79668,-3.84343 9.79663,-5.56335 7.53956,-2.60219 5.00643,-4.90268 0.95173,-6.2767 -3.63477,-1.23144 -3.78446,-7.42129 -2.4828,-8.58872 0.28967,6.6472 3.72269,7.61132 5.17902,8.51819 6.23746,3.90177 -2.35665,7.10238 -6.01411,8.95857 z m -16.78947,-19.47097 c 0.68648,-0.82132 1.49521,-0.91318 2.56078,-0.93299 0.16266,-4.05154 6.42193,-3.75309 8.47207,-2.05777 0,-0.93931 -1.96697,-1.78066 -2.75454,-2.17749 1.36496,-4.57463 0.72406,-6.41276 -0.18058,-10.73335 -0.68669,-3.29726 -3.66761,-7.73431 -6.00223,-9.12292 0.58906,0.51961 1.70841,2.03317 2.89127,4.25311 2.03718,3.8221 4.048,9.47078 2.70896,14.21433 -0.51561,1.81179 -1.69372,2.03992 -2.50224,2.13156 -3.58941,0.37703 -1.47922,-4.27466 -2.96946,-10.6824 -1.6596,-7.12284 -3.36153,-7.65726 -3.78922,-8.21627 -2.05662,-9.26746 -4.34437,-8.34252 -4.99174,-11.84158 -0.58085,-3.0959 2.67785,-5.65674 -1.75248,-6.52268 -1.35048,-0.26732 -3.28311,-1.64787 -4.05448,-1.74626 -0.76316,-0.10493 -1.1375,-5.10927 1.66262,-5.31258 2.80012,-0.20833 3.33538,3.18754 2.78564,4.52391 -0.79577,1.3233 0.0585,1.81831 1.44316,1.3873 1.13253,-0.35091 0.40199,-3.32382 0.672,-3.76463 -0.73054,-4.25659 -2.49425,-4.86981 -4.33119,-5.22725 -6.97189,0.53942 -3.84149,8.32141 -4.54762,7.57192 -0.98759,-1.05598 -3.95706,-0.059 -3.94237,-0.7362 0.0635,-3.96817 -1.25609,-6.26843 -3.07359,-6.31611 -2.024,-0.059 -2.85865,2.79746 -2.98091,4.40571 -0.11557,1.54469 0.91134,4.76336 1.6611,4.51738 0.49142,-0.16392 1.33256,-1.15917 0.43288,-1.15438 -0.46528,0.007 -1.16817,-1.09364 -1.2414,-2.43175 -0.07,-1.33462 0.41495,-2.67751 2.13481,-2.60698 2.01752,0.0788 1.99787,4.05001 1.77818,4.20413 -0.64586,0.45083 -1.47404,1.32483 -1.56346,1.47394 -0.64112,1.08233 -1.9281,1.34942 -2.39986,1.82506 -0.89816,0.90492 -1.08047,1.92803 -0.40696,2.32008 2.3074,1.33462 1.55721,2.8201 4.78524,2.95789 2.1199,0.0838 3.71621,-0.33284 5.15936,-0.77713 1.12432,-0.34264 4.73469,-1.11824 5.49612,-2.45439 0.33027,-0.56728 0.74523,-0.58709 1.02172,-0.4247 0.48472,0.2819 0.58905,1.22643 -0.65904,1.56428 -1.78488,0.4887 -3.58769,1.44781 -5.16757,2.08563 -1.57665,0.64434 -2.08103,0.89207 -3.56825,1.16744 -3.3518,0.60494 -5.82639,-1.2199 -3.57775,0.97065 0.74523,0.7299 1.4626,1.18551 3.39069,1.10692 4.22232,-0.16892 8.95355,-5.27818 9.42056,-2.99076 0.0976,0.46889 -1.33731,1.10671 -2.45667,1.66746 -3.95857,1.96286 -6.74572,5.83894 -9.2808,4.49757 -2.26809,-1.2051 -4.52473,-6.87511 -4.48584,-4.33517 0.0635,3.917 -5.12372,7.40321 -2.73683,11.86138 -1.54554,0.42448 -5.06994,7.91782 -5.57583,11.82024 -0.27649,2.21015 0.21018,4.98628 -0.31559,6.53749 -0.76315,2.24149 -4.22858,-2.13657 -3.1224,-7.50161 0.19873,-0.94453 0.0311,-1.14458 -0.21968,-0.68875 -1.40881,2.50881 -0.63463,6.00808 0.47673,8.46421 0.48667,1.06251 1.62395,1.53141 2.46487,2.47746 1.81577,2.04623 8.76347,7.2393 10.0228,8.4838 1.52588,1.5116 1.09818,4.97952 -2.14626,5.31084 1.66283,3.16121 3.28332,3.46118 3.25892,8.62965 1.881,-1.01833 1.12432,-3.24502 0.33697,-4.71243 -0.54996,-1.0033 -1.26905,-1.45913 -1.11288,-1.69358 0.1173,-0.17698 1.08523,-1.01658 1.6678,-0.35918 1.71338,1.935 4.94789,2.28111 8.42649,1.84487 3.47212,-0.44429 7.19654,-1.66745 8.91791,-4.45664 0.80701,-1.31024 1.38958,-1.77413 1.76371,-1.54469 0.36937,0.23445 0.53052,1.15917 0.4912,2.64465 -0.0438,1.64939 -0.72881,3.36278 -1.15521,4.73201 -0.48019,1.55122 -0.62794,2.65139 0.87203,2.71039 0.44584,-2.86799 1.22865,-5.68983 1.4546,-8.54258 0.25294,-3.24567 -2.08016,-9.28771 0.43374,-12.29806 z m -21.2818,-46.08132 c -0.11556,0.63956 -0.07,1.03792 0.36938,1.03792 0.0715,0 0.14796,-0.0148 0.17561,-0.17698 0.21147,-1.27084 -0.44087,-2.19556 -0.70634,-2.26935 -0.61973,-0.15586 -0.54175,0.73621 -0.21969,0.66568 0.19528,-0.0396 0.45902,0.28669 0.38104,0.74273 z m 11.46076,-1.74626 c -0.63463,0.059 -0.45232,0.37703 -0.13673,0.46889 0.41322,0.12452 0.80225,0.83286 0.89168,1.60368 0.006,0.0705 0.5303,-0.11145 0.5303,-0.28038 0.0393,-1.23318 -1.00876,-1.817 -1.28525,-1.79219 z"
       inkscape:connector-curvature="0"
       inkscape:export-xdpi="26.377434"
       inkscape:export-ydpi="26.377434" />
    <g
       id="g6435"
       transform="translate(523.1745,445.21934)"
       inkscape:export-xdpi="26.377434"
       inkscape:export-ydpi="26.377434">
      <g
         id="Layer_1" />
      <g
         id="Layer_4"
         transform="matrix(0.18650617,0,0,0.19028968,-118.11199,99.925157)">
        <path
           id="path6379"
           d="m 109,371 0,-218.667 c 0,-6.627 5.373,-12 12,-12 l 274.667,0 c 6.627,0 12,5.373 12,12 l 0,218.667"
           inkscape:connector-curvature="0"
           style="fill:#f2f2f2" />
        <path
           id="path6381"
           d="m 109,371 0,-218.667 c 0,-6.627 5.373,-12 12,-12 l 28.667,0 c 6.627,0 12,5.373 12,12 l 0,218.667"
           inkscape:connector-curvature="0"
           style="fill:#202c3c" />
        <path
           id="path6383"
           d="m 109,164 0,-11.667 c 0,-6.627 5.373,-12 12,-12 l 274.667,0 c 6.627,0 12,5.373 12,12 l 0,11.667"
           inkscape:connector-curvature="0"
           style="fill:#ffffff" />
        <circle
           id="circle6385"
           r="3.5"
           cy="152.125"
           cx="118.625"
           style="fill:#c61934" />
        <circle
           id="circle6387"
           r="3.5"
           cy="152.125"
           cx="128.625"
           style="fill:#fbd50a" />
        <circle
           id="circle6389"
           r="3.5"
           cy="152.125"
           cx="138.625"
           style="fill:#39b54a" />
        <line
           id="line6391"
           y2="171"
           y1="171"
           x2="132.125"
           x1="115.125"
           stroke-miterlimit="10"
           style="fill:none;stroke:#9ea3a6;stroke-width:5;stroke-linecap:round;stroke-miterlimit:10" />
        <line
           id="line6393"
           y2="179"
           y1="179"
           x2="148.33299"
           x1="125.125"
           stroke-miterlimit="10"
           style="fill:none;stroke:#9ea3a6;stroke-width:5;stroke-linecap:round;stroke-miterlimit:10" />
        <line
           id="line6395"
           y2="186"
           y1="186"
           x2="142.125"
           x1="125.125"
           stroke-miterlimit="10"
           style="fill:none;stroke:#9ea3a6;stroke-width:5;stroke-linecap:round;stroke-miterlimit:10" />
        <line
           id="line6397"
           y2="193"
           y1="193"
           x2="156.25"
           x1="125.125"
           stroke-miterlimit="10"
           style="fill:none;stroke:#9ea3a6;stroke-width:5;stroke-linecap:round;stroke-miterlimit:10" />
        <rect
           id="rect6399"
           y="171"
           x="167"
           width="235.66701"
           height="188.66701"
           style="fill:#ffffff" />
        <line
           id="line6401"
           y2="179"
           y1="179"
           x2="204.25"
           x1="173.125"
           stroke-miterlimit="10"
           style="fill:none;stroke:#202c3c;stroke-width:5;stroke-miterlimit:10" />
        <line
           id="line6403"
           y2="189"
           y1="189"
           x2="279.75"
           x1="182.625"
           stroke-miterlimit="10"
           style="fill:none;stroke:#be1e2d;stroke-width:5;stroke-miterlimit:10" />
        <line
           id="line6405"
           y2="199"
           y1="199"
           x2="237.5"
           x1="192.375"
           stroke-miterlimit="10"
           style="fill:none;stroke:#fbd50a;stroke-width:5;stroke-miterlimit:10" />
        <line
           id="line6407"
           y2="209"
           y1="209"
           x2="262.5"
           x1="192.375"
           stroke-miterlimit="10"
           style="fill:none;stroke:#fbd50a;stroke-width:5;stroke-miterlimit:10" />
        <line
           id="line6409"
           y2="219"
           y1="219"
           x2="301.75"
           x1="192.375"
           stroke-miterlimit="10"
           style="fill:none;stroke:#9ea3a6;stroke-width:5;stroke-miterlimit:10" />
        <line
           id="line6411"
           y2="219"
           y1="219"
           x2="257.5"
           x1="212.375"
           stroke-miterlimit="10"
           style="fill:none;stroke:#be1e2d;stroke-width:5;stroke-miterlimit:10" />
        <line
           id="line6413"
           y2="229"
           y1="229"
           x2="314.75"
           x1="192.375"
           stroke-miterlimit="10"
           style="fill:none;stroke:#202c3c;stroke-width:5;stroke-miterlimit:10" />
        <line
           id="line6415"
           y2="239"
           y1="239"
           x2="301.75"
           x1="192.375"
           stroke-miterlimit="10"
           style="fill:none;stroke:#9ea3a6;stroke-width:5;stroke-miterlimit:10" />
        <line
           id="line6417"
           y2="249"
           y1="249"
           x2="237.5"
           x1="192.375"
           stroke-miterlimit="10"
           style="fill:none;stroke:#fbd50a;stroke-width:5;stroke-miterlimit:10" />
        <line
           id="line6419"
           y2="259"
           y1="259"
           x2="262.5"
           x1="192.375"
           stroke-miterlimit="10"
           style="fill:none;stroke:#fbd50a;stroke-width:5;stroke-miterlimit:10" />
        <line
           id="line6421"
           y2="269"
           y1="269"
           x2="301.75"
           x1="192.375"
           stroke-miterlimit="10"
           style="fill:none;stroke:#9ea3a6;stroke-width:5;stroke-miterlimit:10" />
        <line
           id="line6423"
           y2="279"
           y1="279"
           x2="314.75"
           x1="192.375"
           stroke-miterlimit="10"
           style="fill:none;stroke:#be1e2d;stroke-width:5;stroke-miterlimit:10" />
        <line
           id="line6425"
           y2="289"
           y1="289"
           x2="301.75"
           x1="192.375"
           stroke-miterlimit="10"
           style="fill:none;stroke:#9ea3a6;stroke-width:5;stroke-miterlimit:10" />
        <line
           id="line6427"
           y2="152.16701"
           y1="152.16701"
           x2="184.75"
           x1="153.625"
           stroke-miterlimit="10"
           style="fill:none;stroke:#9ea3a6;stroke-width:5;stroke-linecap:round;stroke-miterlimit:10" />
      </g>
      <g
         id="g6579"
         transform="translate(-384.45872,-47.111103)">
        <g
           id="Layer_1-4">
          <g
             id="g6548">
            <circle
               id="circle6550"
               r="32"
               cy="32"
               cx="32"
               style="fill:#77b3d4" />
          </g>
          <g
             id="g6552"
             style="opacity:0.2">
            <g
               id="g6554">
              <path
                 id="path6556"
                 d="m 32,11.914 c -12.15,0 -22,9.85 -22,22 0,12.15 9.85,22 22,22 12.15,0 22,-9.85 22,-22 0,-12.15 -9.85,-22 -22,-22 z M 14.053,24.72 c 0.21,0.844 -0.21,2.36 -0.534,4.538 -0.378,2.54 1.647,1.991 1.579,4.393 -0.068,2.402 1.785,3.398 1.544,3.638 -0.24,0.24 -1.201,0.583 0.24,3.707 1.441,3.123 2.677,4.05 2.849,5.731 0.172,1.682 2.025,4.153 2.025,4.153 l 0.103,0.462 c -5.994,-3.501 -10.032,-10 -10.032,-17.428 0,-3.311 0.807,-6.435 2.226,-9.194 z m 9.968,27.086 c -0.103,-0.446 0.103,-2.849 2.986,-3.809 2.883,-0.961 2.402,-2.231 3.26,-3.466 0.858,-1.235 1.03,-2.162 -0.618,-2.54 -1.647,-0.378 -3.363,-0.652 -4.839,-2.986 -1.476,-2.334 -3.535,-2.402 -4.633,-3.123 -1.098,-0.721 -1.991,-0.583 -3.329,-0.755 -1.338,-0.172 -0.892,-3.912 -0.824,-4.736 0.069,-0.824 -0.824,0.275 -1.476,-0.296 -0.652,-0.571 0.618,-3.239 1.888,-3.136 1.27,0.103 0.961,0.721 1.201,2.128 0.24,1.407 0.686,1.064 0.789,0.618 0.103,-0.446 0.172,-2.334 0.618,-2.917 0.446,-0.583 0.549,-2.162 1.991,-2.094 1.441,0.069 1.407,-1.304 2.471,-0.858 1.064,0.446 1.819,0.103 1.133,-0.48 -0.686,-0.583 -0.309,-1.167 0.858,-0.789 1.167,0.378 1.235,-1.682 1.03,-2.746 -0.206,-1.064 -1.064,-1.373 -2.128,-0.721 -1.064,0.652 -1.853,0.378 -1.304,-0.721 0.549,-1.098 2.711,-0.172 4.015,0.378 1.304,0.549 1.647,-1.441 0.927,-2.402 -0.721,-0.961 -0.755,-0.515 -2.814,-0.378 -0.82,0.055 -0.736,-0.386 -0.338,-0.936 2.214,-0.838 4.612,-1.3 7.116,-1.3 2.535,0 4.96,0.474 7.197,1.332 0.282,0.394 0.396,0.704 0.2,0.835 -0.824,0.549 -1.544,0.059 -1.304,1.591 0.24,1.532 1.373,3.352 2.265,2.751 0.892,-0.601 2.437,0.154 1.098,0.978 -1.338,0.824 -1.716,0.755 -2.334,1.304 -0.618,0.549 -0.343,0.275 0.275,0.961 0.618,0.686 0.549,0.824 -0.309,1.167 -0.858,0.343 -1.373,1.098 -0.549,1.956 0.824,0.858 1.373,1.579 2.299,0 0.927,-1.579 1.098,-2.951 1.888,-2.54 0.789,0.412 1.682,1.682 2.265,0.961 0.583,-0.721 0.48,-1.201 1.27,-0.652 0.789,0.549 3.707,0.583 1.75,2.025 -1.956,1.441 -1.613,2.059 -2.54,1.888 -0.927,-0.172 -5.114,-1.064 -6.075,1.27 -0.961,2.334 -4.462,4.187 -2.643,6.452 1.819,2.265 1.407,3.912 4.015,4.256 2.608,0.343 3.947,-0.824 4.599,0.378 0.652,1.202 0.137,1.339 0.172,3.157 0.017,0.902 0.498,2.601 0.978,4.089 -3.672,3.81 -8.821,6.188 -14.518,6.188 -2.868,0 -5.597,-0.606 -8.07,-1.69 0.074,-0.285 0.112,-0.501 0.091,-0.592 z"
                 inkscape:connector-curvature="0"
                 style="fill:#231f20" />
            </g>
            <g
               id="g6558">
              <path
                 id="path6560"
                 d="m 32.086,18.207 c 0.632,-0.38 0.686,0.137 1.235,-1.613 0.549,-1.75 -2.059,-1.991 -3.295,-1.785 -1.235,0.206 -0.686,0.721 -0.686,0.721 0.412,0.652 0.684,3.054 -0.053,3.947 -0.736,0.892 0.602,1.064 1.185,0.24 0.585,-0.824 0.93,-1.099 1.614,-1.51 z"
                 inkscape:connector-curvature="0"
                 style="fill:#231f20" />
            </g>
          </g>
          <g
             id="g6562">
            <g
               id="g6564">
              <path
                 id="path6566"
                 d="m 32,10.087 c -12.15,0 -22,9.85 -22,22 0,12.15 9.85,22 22,22 12.15,0 22,-9.85 22,-22 0,-12.15 -9.85,-22 -22,-22 z M 14.053,22.893 c 0.21,0.844 -0.21,2.36 -0.534,4.538 -0.378,2.54 1.647,1.991 1.579,4.393 -0.068,2.402 1.785,3.398 1.544,3.638 -0.24,0.24 -1.201,0.583 0.24,3.707 1.441,3.123 2.677,4.05 2.849,5.731 0.172,1.682 2.025,4.153 2.025,4.153 l 0.103,0.462 c -5.994,-3.501 -10.032,-10 -10.032,-17.428 0,-3.311 0.807,-6.435 2.226,-9.194 z m 9.968,27.086 c -0.103,-0.446 0.103,-2.849 2.986,-3.809 2.883,-0.961 2.402,-2.231 3.26,-3.466 0.858,-1.235 1.03,-2.162 -0.618,-2.54 C 28.002,39.786 26.286,39.512 24.81,37.178 23.334,34.844 21.275,34.776 20.177,34.055 19.079,33.334 18.186,33.472 16.848,33.3 15.51,33.128 15.956,29.388 16.024,28.564 16.093,27.74 15.2,28.839 14.548,28.268 c -0.652,-0.571 0.618,-3.239 1.888,-3.136 1.27,0.103 0.961,0.721 1.201,2.128 0.24,1.407 0.686,1.064 0.789,0.618 0.103,-0.446 0.172,-2.334 0.618,-2.917 0.446,-0.583 0.549,-2.162 1.991,-2.093 1.441,0.069 1.407,-1.304 2.471,-0.858 1.064,0.446 1.819,0.103 1.133,-0.48 -0.686,-0.583 -0.309,-1.167 0.858,-0.789 1.167,0.378 1.235,-1.682 1.03,-2.746 -0.206,-1.064 -1.064,-1.373 -2.128,-0.721 -1.064,0.652 -1.853,0.378 -1.304,-0.721 0.549,-1.098 2.711,-0.172 4.015,0.378 1.304,0.549 1.647,-1.441 0.927,-2.402 -0.721,-0.961 -0.755,-0.515 -2.814,-0.378 -0.82,0.055 -0.736,-0.386 -0.338,-0.936 2.214,-0.838 4.612,-1.3 7.116,-1.3 2.535,0 4.96,0.474 7.197,1.332 0.282,0.394 0.396,0.704 0.2,0.835 -0.824,0.549 -1.544,0.059 -1.304,1.591 0.24,1.532 1.373,3.352 2.265,2.751 0.892,-0.601 2.437,0.154 1.098,0.978 -1.338,0.824 -1.716,0.755 -2.334,1.304 -0.618,0.549 -0.343,0.275 0.275,0.961 0.618,0.686 0.549,0.824 -0.309,1.167 -0.858,0.343 -1.373,1.098 -0.549,1.956 0.824,0.858 1.373,1.579 2.299,0 0.927,-1.579 1.098,-2.951 1.888,-2.54 0.789,0.412 1.682,1.682 2.265,0.961 0.583,-0.721 0.48,-1.201 1.27,-0.652 0.789,0.549 3.707,0.583 1.75,2.025 -1.956,1.441 -1.613,2.059 -2.54,1.888 -0.927,-0.172 -5.114,-1.064 -6.075,1.27 -0.961,2.334 -4.462,4.187 -2.643,6.452 1.819,2.265 1.407,3.912 4.015,4.256 2.608,0.343 3.947,-0.824 4.599,0.378 0.652,1.201 0.137,1.339 0.172,3.157 0.017,0.902 0.498,2.601 0.978,4.089 -3.672,3.81 -8.821,6.188 -14.518,6.188 -2.868,0 -5.597,-0.606 -8.07,-1.69 0.074,-0.286 0.112,-0.502 0.091,-0.593 z"
                 inkscape:connector-curvature="0"
                 style="fill:#ffffff" />
            </g>
            <g
               id="g6568">
              <path
                 id="path6570"
                 d="m 32.086,16.38 c 0.632,-0.38 0.686,0.137 1.235,-1.613 0.549,-1.75 -2.059,-1.991 -3.295,-1.785 -1.235,0.206 -0.686,0.721 -0.686,0.721 0.412,0.652 0.684,3.054 -0.053,3.947 -0.736,0.892 0.602,1.064 1.185,0.24 0.583,-0.824 0.93,-1.099 1.614,-1.51 z"
                 inkscape:connector-curvature="0"
                 style="fill:#ffffff" />
            </g>
          </g>
        </g>
        <g
           id="Layer_2" />
      </g>
    </g>
  </g>
</svg>
